<svg id="Layer_1" height="512" viewBox="0 0 128 128" width="512" xmlns="http://www.w3.org/2000/svg" data-name="Layer 1"><path d="m116.5 103.951h-9.391a8.4 8.4 0 0 0 1.429-6.882h2.182a5.6 5.6 0 0 0 0-11.207h-66.426l-.749-3h60.913a1.749 1.749 0 0 0 1.7-1.325l12.042-48.046a1.749 1.749 0 0 0 -1.7-2.175h-85.816l-.863-3.459a5.594 5.594 0 0 0 -5.437-4.247h-9.031a5.6 5.6 0 0 0 0 11.207h4.654l14.474 58.005a5.594 5.594 0 0 0 5.437 4.247h3.282a8.4 8.4 0 0 0 1.429 6.882h-33.129a1.75 1.75 0 0 0 0 3.5h105a1.75 1.75 0 0 0 0-3.5zm-56.719-6.882h32.175a8.4 8.4 0 0 0 1.429 6.882h-35.033a8.4 8.4 0 0 0 1.429-6.882zm35.459 1.875a5.006 5.006 0 1 1 5.006 5.006 5.012 5.012 0 0 1 -5.005-5.005zm13.805-43.336h-12.336l1.939-8.208h12.452zm-2.935 11.711h-12.167l1.939-8.211h12.286zm-31.026 12.042-.156-8.542h14.593l-2.021 8.542zm-15.453 0-2.017-8.542h13.814l.156 8.542zm-2.843-12.042-1.939-8.211h16.365l.15 8.211zm18.076 0-.15-8.211h17.572l-1.939 8.211zm18.249-11.711h-18.463l-.15-8.208h20.552zm-18.677-11.708-.166-9.082h23.753l-2.145 9.082zm-3.5 0h-19.679l-2.145-9.082h21.657zm.064 3.5.15 8.211h-17.127l-1.939-8.211zm-20.574 8.208h-13.681l-2.045-8.208h13.787zm.826 3.5 1.939 8.211h-13.524l-2.049-8.211zm-10.711 11.711h13.477l2.017 8.542h-13.363zm62.552 8.542h-11.993l2.017-8.542h12.117zm8.888-35.461h-12.507l2.144-9.082h12.639zm-66.465-9.084 2.145 9.084h-13.838l-2.266-9.082zm-5.6 58.753a2.1 2.1 0 0 1 -2.041-1.594l-14.8-59.333a1.75 1.75 0 0 0 -1.7-1.326h-6.022a2.1 2.1 0 0 1 0-4.207h9.031a2.1 2.1 0 0 1 2.041 1.591l14.8 59.333a1.75 1.75 0 0 0 1.7 1.326h67.795a2.1 2.1 0 0 1 0 4.207h-3.888a8.492 8.492 0 0 0 -13.171 0h-35.585a8.492 8.492 0 0 0 -13.171 0zm6.566 5.375a5.006 5.006 0 1 1 5.006 5.006 5.012 5.012 0 0 1 -5.004-5.005z"/></svg>