<svg id="Layer_35" enable-background="new 0 0 64 64" height="512" viewBox="0 0 64 64" width="512" xmlns="http://www.w3.org/2000/svg"><g fill="#f0bc5e"><path d="m30 29 2 3 2-3-1-9h-2z"/><path d="m55.63 18.238c-1.13-.856-2.428-1.497-3.839-1.866l-2.791 3.908-2.796-3.914c-1.409.37-2.709 1.006-3.838 1.861l3.247 5.773 3.387-4 3.388 4z"/><path d="m15 21c2.006 0 3.661-1.823 3.944-4.271-1.224-.47-2.554-.729-3.944-.729-1.391 0-2.717.269-3.943.74.287 2.443 1.939 4.26 3.943 4.26z"/></g><path d="m53.223 15.782c2.263-1.415 3.777-3.922 3.777-6.782 0-4.411-3.589-8-8-8s-8 3.589-8 8c0 2.855 1.508 5.358 3.765 6.774-2.562.969-4.749 2.804-6.15 5.223-.742-.493-1.546-.896-2.392-1.216 2.263-1.414 3.777-3.921 3.777-6.781 0-4.411-3.589-8-8-8s-8 3.589-8 8c0 2.86 1.514 5.367 3.777 6.782-.846.319-1.65.723-2.392 1.216-1.401-2.419-3.587-4.254-6.149-5.223 2.256-1.416 3.764-3.92 3.764-6.775 0-4.411-3.589-8-8-8s-8 3.589-8 8c0 2.86 1.514 5.367 3.777 6.782-4.537 1.714-7.777 6.089-7.777 11.218v8c0 2.206 1.794 4 4 4h1v16c0 2.206 1.794 4 4 4 1.201 0 2.266-.542 3-1.382.734.84 1.799 1.382 3 1.382 2.206 0 4-1.794 4-4v-12.556c.591.344 1.268.556 2 .556h1v16c0 2.206 1.794 4 4 4 1.201 0 2.266-.542 3-1.382.734.84 1.799 1.382 3 1.382 2.206 0 4-1.794 4-4v-16h1c.732 0 1.409-.212 2-.556v12.556c0 2.206 1.794 4 4 4 1.201 0 2.266-.542 3-1.382.734.84 1.799 1.382 3 1.382 2.206 0 4-1.794 4-4v-16h1c2.206 0 4-1.794 4-4v-8c0-5.129-3.24-9.504-7.777-11.218zm-10.223-6.782c0-3.309 2.691-6 6-6s6 2.691 6 6-2.691 6-6 6-6-2.691-6-6zm-17 4c0-3.309 2.691-6 6-6s6 2.691 6 6-2.691 6-6 6-6-2.691-6-6zm-17-4c0-3.309 2.691-6 6-6s6 2.691 6 6-2.691 6-6 6-6-2.691-6-6zm11 46c0 1.103-.897 2-2 2s-2-.897-2-2v-21h-2v21c0 1.103-.897 2-2 2s-2-.897-2-2v-32h-2v14h-1c-1.103 0-2-.897-2-2v-8c0-5.514 4.486-10 10-10 3.691 0 7.051 2.058 8.786 5.276-2.325 2.189-3.786 5.286-3.786 8.724v3.054 4.946zm20-14h-1v-14h-2v32c0 1.103-.897 2-2 2s-2-.897-2-2v-21h-2v21c0 1.103-.897 2-2 2s-2-.897-2-2v-32h-2v14h-1c-1.103 0-2-.897-2-2v-4.946-3.054c0-5.514 4.486-10 10-10s10 4.486 10 10v3 5c0 1.103-.897 2-2 2zm19-6c0 1.103-.897 2-2 2h-1v-13h-2v31c0 1.103-.897 2-2 2s-2-.897-2-2v-21h-2v21c0 1.103-.897 2-2 2s-2-.897-2-2v-16-5-3c0-3.438-1.461-6.535-3.786-8.724 1.734-3.218 5.096-5.276 8.786-5.276 5.514 0 10 4.486 10 10z"/></svg>